poster: 
http://img171.imageshack.us/img171/39/pactx600.jpg

Source: 720p VOD Axed
thx

Encode:
a bit late for this movie, thought its a b-movie, doesnt look like it, so here is my version.
quality was nice, just a bit dark, added sharpness, brightness, fixed rgb and denoised.
got very nice
enjoy

Video: 720x384 @bitrate 1700 2pass
Audio: English AC3 5.1 @384
Sample: Yes, included
 
http://www.imdb.com/title/tt2040560/

General
Complete name : /mnt/sdc1/rahulraj/files/The.Pact.2012.HDRip.XviD.AC3-XTREME/The.Pact.2012.HDRip.XviD.AC3-XTREME.avi
Format : AVI
Format/Info : Audio Video Interleave
File size : 1.33 GiB
Duration : 1h 29mn
Overall bit rate : 2 143 Kbps
Writing application : Nandub v1.0rc2
Writing library : Nandub build 1853/release

Video
ID : 0
Format : MPEG-4 Visual
Format profile : Advanced Simple@L5
Format settings, BVOP : 2
Format settings, QPel : Yes
Format settings, GMC : No warppoints
Format settings, Matrix : Default (H.263)
Muxing mode : Packed bitstream
Codec ID : XVID
Codec ID/Hint : XviD
Duration : 1h 29mn
Bit rate : 1 750 Kbps
Width : 720 pixels
Height : 384 pixels
Display aspect ratio : 1.875
Frame rate : 23.976 fps
Color space : YUV
Chroma subsampling : 4:2:0
Bit depth : 8 bits
Scan type : Progressive
Compression mode : Lossy
Bits/(Pixel*Frame) : 0.264
Stream size : 1.09 GiB (82%)
Writing library : XviD 1.2.1 (UTC 2008-12-04)

Audio
ID : 1
Format : AC-3
Format/Info : Audio Coding 3
Mode extension : CM (complete main)
Codec ID : 2000
Duration : 1h 29mn
Bit rate mode : Constant
Bit rate : 384 Kbps
Channel(s) : 6 channels
Channel positions : Front: L C R, Side: L R, LFE
Sampling rate : 48.0 KHz
Bit depth : 16 bits
Compression mode : Lossy
Stream size : 245 MiB (18%)
Alignment : Split accross interleaves
Interleave, duration : 42 ms (1.00 video frame)
Interleave, preload duration : 500 ms

SCREENS: 
http://img204.imageshack.us/img204/4444/22579746.png 
http://img836.imageshack.us/img836/7737/ttpp.png 
http://img207.imageshack.us/img207/6052/ttptpp.png 
http://img31.imageshack.us/img31/425/ttpttppp.png